<svg fill="#000000" height="24" viewBox="0 0 24 24" width="24" xmlns="http://www.w3.org/2000/svg" xmlns:xlink="http://www.w3.org/1999/xlink">
<g>
	<defs>
		<rect id="SVGID_1_" width="24" height="24"/>
	</defs>
	<clipPath id="SVGID_2_">
		<use xlink:href="#SVGID_1_"  overflow="visible"/>
	</clipPath>
	<g clip-path="url(#SVGID_2_)">
		<path d="M12,5V1L7,6l5,5V7c3.3,0,6,2.7,6,6s-2.7,6-6,6s-6-2.7-6-6H4c0,4.4,3.6,8,8,8s8-3.6,8-8S16.4,5,12,5z"/>
		<polygon points="10.8,16 10.9,16 10.9,11.7 10.8,11.7 9,12.3 9,13 10,12.7 10,16 		"/>
		<path d="M14.023,15.035l-0.2,0.2c-0.1,0.1-0.2,0.1-0.3,0.1c-0.2,0-0.3,0-0.4-0.1c-0.1-0.1-0.2-0.2-0.2-0.4h-0.8
			c0,0.2,0,0.3,0.1,0.5c0.1,0.2,0.1,0.3,0.3,0.4c0.2,0.1,0.4,0.1,0.5,0.2c0.1,0.1,0.3,0.1,0.5,0.1c0.2,0,0.4,0,0.6-0.1
			c0.2-0.1,0.3-0.1,0.5-0.3c0.2-0.2,0.2-0.4,0.3-0.5c0.1-0.1,0.1-0.3,0.1-0.5c0-0.2,0-0.4-0.1-0.6s-0.2-0.4-0.3-0.5
			c-0.1-0.1-0.3-0.2-0.4-0.3c-0.1-0.1-0.3-0.1-0.5-0.1h-0.2c-0.1,0-0.2-0.1-0.2,0c0,0.1-0.1,0-0.1,0.1s-0.1,0.1-0.1,0.1l0.1-0.9h1.7
			v-0.7h-2.4l-0.2,2.2h0.6c0,0,0.1,0,0.1-0.1c0-0.1,0,0,0.1-0.1c0.1-0.1,0.2-0.1,0.2-0.1h0.2c0.1,0,0.3,0.1,0.3,0.1l0.2,0.2l0.1,0.2
			v0.6C14.124,14.835,14.023,15.035,14.023,15.035z"/>
	</g>
</g>
</svg>
