<svg fill="#000000" height="24" viewBox="0 0 24 24" width="24" xmlns="http://www.w3.org/2000/svg" xmlns:xlink="http://www.w3.org/1999/xlink">
<g>
	<defs>
		<rect id="SVGID_1_" width="24" height="24"/>
	</defs>
	<clipPath id="SVGID_2_">
		<use xlink:href="#SVGID_1_"  overflow="visible"/>
	</clipPath>
	<path clip-path="url(#SVGID_2_)" d="M4,13c0,4.4,3.6,8,8,8s8-3.6,8-8h-2c0,3.3-2.7,6-6,6s-6-2.7-6-6s2.7-6,6-6v4l5-5l-5-5v4
		C7.6,5,4,8.6,4,13z M10.8,16H10v-3.3L9,13v-0.7l1.8-0.6h0.1V16H10.8z"/>
	<path clip-path="url(#SVGID_2_)" d="M12.324,13.935l0.2-2.2h2.4v0.7h-1.7l-0.1,0.9c0,0,0.1,0,0.1-0.1s0.1,0,0.1-0.1s0.1,0,0.2,0
		h0.2c0.2,0,0.4,0,0.5,0.1s0.3,0.2,0.4,0.3s0.2,0.3,0.3,0.5s0.1,0.4,0.1,0.6c0,0.2,0,0.4-0.1,0.5s-0.1,0.3-0.3,0.5s-0.3,0.2-0.5,0.3
		c-0.2,0.1-0.4,0.1-0.6,0.1c-0.2,0-0.4,0-0.5-0.1c-0.1-0.1-0.3-0.1-0.5-0.2s-0.2-0.2-0.3-0.4s-0.1-0.3-0.1-0.5h0.8
		c0,0.2,0.1,0.3,0.2,0.4s0.2,0.1,0.4,0.1c0.1,0,0.2,0,0.3-0.1l0.2-0.2c0,0,0.1-0.2,0.1-0.3v-0.6l-0.1-0.2l-0.2-0.2
		c0,0-0.2-0.1-0.3-0.1h-0.2c0,0-0.1,0-0.2,0.1s-0.1,0-0.1,0.1s-0.1,0.1-0.1,0.1S12.324,13.935,12.324,13.935z"/>
</g>
</svg>
